<?xml version="1.0" encoding="UTF-8"?>
<svg id="_레이어_1" data-name=" 레이어 1" xmlns="http://www.w3.org/2000/svg" viewBox="0 0 780.58 430.71">
  <defs>
    <style>
      .cls-1 {
        fill: #fff;
        stroke: #000;
        stroke-miterlimit: 10;
        stroke-width: 3px;
      }
    </style>
  </defs>
  <path class="cls-1" d="M.15,181.65c4.29,.44,10.49,.94,18,1,8.05,.07,12.18,.08,17-1,6.27-1.41,6.52-2.9,18-8,11.62-5.16,19.94-7.45,22-8,5.39-1.44,9.93-2.66,16-3,7.44-.42,14.58,1.1,16.56,1.48,1.2,.23,2.08,.43,2.44,.52,3.57,.81,22.45,4.69,39,5,11.75,.22,20.3-1.65,31-4,20.08-4.4,23.36-8.66,41-11,10.39-1.38,18.74-1.16,24-1,10.92,.33,18.53,1.64,32,4,24.04,4.22,36.06,6.33,43,8,10.37,2.5,16.77,4.48,23,1,1.82-1.02,5.69-3.65,10-14,2.66-6.39,3.93-11.78,4.69-16.09,1.17-6.61,1.27-11.74,1.31-13.91,.36-22.39-1.58-38.2-1-58,.26-9.06,.96-20.99-3-36-2.4-9.08-4.73-12.58-7-15-5.71-6.08-13-7.49-26-10-6.39-1.23-13.51-2.61-23-2-9.53,.61-11.25,2.56-24,5-6.19,1.18-13.87,1.8-29,3-16.26,1.29-24.4,1.93-31,2-19.82,.22-29.74,.32-38-3-5.4-2.17-8.73-4.54-12-3-3.24,1.52-3.56,8.36-3.94,12.65-.16,1.77-.32,3.54-.48,5.32,0,0-.2,2.19-.58,5.04-.02,.16-.04,.28-.06,.41-.09,.53-.17,.83-.36,1.68-.04,.17-.07,.34-.11,.51,0,0-.24,1.08-.76,3.48-1.32,6.11-2.71,12.9-2.71,12.9-4.72,23.11-7.11,34.82-9,42-1.49,5.68-2.16,7.64-4,15-5.23,20.88-4.49,23.63-3,25,2.18,2.01,5.08,.27,20-3,5.55-1.22,13.31-2.92,22-4,12.1-1.5,13.43-.24,22-2,8.1-1.66,9.8-3.39,18-6,9.3-2.97,16.87-3.64,32-5,15.97-1.43,27.15-1.22,33-1,20.65,.78,25.75,3.64,29,7,.66,.68,6.9,7.32,5,14-1.94,6.81-11.1,9.23-14,10-1.88,.5-6.58,1.41-19.65-1.41-8.16-1.77-13.45-3.68-16.35-4.59-12.93-4.05-24.07-2.2-42,0-8.14,1-5.3,1.28-36,8-20.11,4.4-30.38,6.63-41,8-12.47,1.61-14.35,1.01-24,3-9.93,2.05-13.21,3.76-15,2-3.81-3.74,6.04-16.31,14-36,5.98-14.8,3.08-14.31,12-50,6.16-24.67,12.79-45.88,10-47-1.84-.74-4.48,8.67-14,12-6.29,2.2-10.19-.13-14,3-4.18,3.43-3.99,9.94-4,13,0,1.41-3.05,14.61-9,41-2.95,13.08-3.26,12.28-6,25-1.42,6.61-2.32,11.34-5,26-2.01,11-3.48,22.11-6,33-1.73,7.46-2.64,10.16-1,12,4,4.49,23.78-4.68,31-8,0,0,66.36-30.53,123-35,8.88-.7,16,0,16,0,9.93,.98,11.97,3.04,24,5,5.4,.88,3.02,.15,20,2,11.25,1.23,15.99,1.96,21,3,6.39,1.33,8.89,2.27,12,3,3.66,.85,11.34,1.48,33-3,10.15-2.1,7.79-2.15,17-4,16.94-3.4,28.19-3.9,31-4,3.29-.12,7.07-.06,14.64,.07,13.13,.22,17.48,.67,27.36,.93,19.14,.51,18.28-.94,27,0,12.31,1.33,19.61,4.14,32,8,16.84,5.25,29.31,8.14,46,12,41.02,9.5,33.6,3.7,53,10,7.15,2.32,12.4,4.49,15,2,1.98-1.9,1.09-6-2.8-16.88-3.48-9.73-5.22-14.6-9.2-23.12-3.6-7.68-7.97-18.92-11-34,0,0-3.03-9.64-15-50-10.15-10.36-13.61-10.84-15-10-.04,.03-.14,.09-.26,.19-3.26,2.83,.75,15.35,2.26,20.81,2.49,8.96-.05,5.13,4,31,1.62,10.34,2.43,15.51,4,22,2.8,11.53,6.07,20.33,8.42,26,1.42,3.42,3.47,8.05,3.58,8,.21-.09-.15-4.8-3-8-5.45-6.13-14.44-.41-21-6-3.38-2.88-4.2-7.15-5.84-15.69-1.27-6.62-1.18-11.77-1.16-13.31,.3-20.24-1.98-18.56-2-45-.01-16.57,.88-21.31-3-28-3.69-6.36-10.58-12.56-14-11-3.5,1.6-.48,10.02,1,40,.5,10.06,.42,14.4,2,22,1.41,6.75,2.85,9.93,4,17,1.36,8.31-.14,9.29,1,18,1.2,9.16,3.38,14.33,2,15-1.04,.5-2.76-2.17-11.31-8.49,0,0-.19-.14-.69-.51-10.49-7.69-29-8-29-8-15.01-.25-8.95-3.46-52-9-22.92-2.95-34.38-4.42-42-3-18.31,3.42-35.3,13.66-40,17-.07,.05-.72,.51-1.63,1.15-9.6,6.75-14.4,10.12-15.37,9.85-4.5-1.28,.2-22.2,1-53,.48-18.34,3.32-36.7,2-55-.42-5.79-1.11-12.29,3-17,4.52-5.19,11.37-4.21,31-5,23.21-.93,20.67-2.58,32-2,10.03,.51,18.35,2.34,35,6,18.76,4.12,17.2,4.89,26,6,6.81,.86,11.45,.87,34,1,7.15-2.96,9.83-2.13,11-1,3.18,3.05-2.37,10.57-5,26-1.72,10.07-1.28,18.22-1,23,.25,4.27,.58,5.55,4,26,2.59,15.51,2.8,17.18,3,19,1.76,16.21,2.81,25.94-2,29-3.03,1.93-9.69-.04-23-4-.78-.23-3.88-1.16-6.27-1.88-6.06-1.82-7.4-2.24-10.08-3.04,0,0-5.6-1.67-10.66-3.08-16.55-4.63-36-5-36-5-17.9-.34-32.33,2.68-41,5-17.29,4.63-31.71,8.49-33,17-1.29,8.53,10.85,20.16,20,19,4.65-.59,7.63-4.37,9-6,12.04-14.33,31.55-19.62,44-23,17.05-4.63,46.28-5.19,64,11,9.95,9.09,11.59,19.18,27,28,2.9,1.66,9.97,5.63,19,7,26.67,4.06,37.82-19.44,79-28,5.73-1.19,12.82-1.79,27-3,28.05-2.39,42.33-3.49,55,1,16.31,5.78,26.07,17.26,30,22,24.43,29.45,28.84,81.87,6,103-15.59,14.42-31.02,2.37-79,14-20.56,4.98-61.3,14.86-64,33-3.84,25.83,73.29,42.59,71,66-2.72,27.76-117.35,66.6-177,16-30.73-26.07-49.82-78.37-31-99,17.53-19.22,65.23-7.99,67,3,1.97,12.24-54.18,17.06-93,66-14.36,18.11-21.85,36.58-26,50"/>
</svg>