<?xml version="1.0" encoding="UTF-8"?>
<svg id="_레이어_1" data-name=" 레이어 1" xmlns="http://www.w3.org/2000/svg" viewBox="0 0 440.93 424.41">
  <defs>
    <style>
      .cls-1 {
        fill: #fff;
        stroke: #000;
        stroke-miterlimit: 10;
        stroke-width: 3px;
      }
    </style>
  </defs>
  <path class="cls-1" d="M440,109.71c-6.34,5-11.95,7.06-16,8,0,0-1.53,.36-13,2-3.8-1.75-8.6-4.76-11-10-2.64-5.75,.06-8.81,0-21-.06-11.45-2.46-11.09-2-22,.27-6.41,1.19-8.87,0-14-1.57-6.74-5.14-11.01-6-12-4.42-5.1-9.53-7.08-12-8-5.24-1.96-9.61-2-12-2-5.3,0-10.37,0-14,3-3.63,3.01-3.45,7.08-5,17-1.21,7.75-3.38,15.32-5,23-3.38,15.98-3.67,14.44-6,26-2.32,11.47-1.7,11.34-5,30-3.81,21.56-3.75,16.81-5,26-1.94,14.28-1.12,18.81-5,22-3.52,2.9-7.59,1.96-21,0-12.97-1.9-26-3.33-39-5-14.48-1.86-18.07-2.01-26-4-8.27-2.07-8.77-3.01-17-5-9.88-2.39-12.45-1.83-27-4-2.81-.42-.83-.16-27-5-8.36-1.55-16.56-3.97-25-5-8.81-1.07-12.96-.83-15-4-1.45-2.25-2.2-7.41-.21-10.21,0,0,2.18-3.08,2.31-5.71,0,0,.04,.79-.1,.93-.52,.52-5.51-5.82-8-5-2.5,.82,0,8.04-3,19-1.38,5.04-2.48,5.58-3,10-.59,4.98,.58,6.15,0,12-.6,6.05-2.06,6.95-1,9,.72,1.39,2.12,2.37,12,5,3.87,1.03,5.79,1.56,8,2,1.41,.28,2.74,.5,4.26,.72,6.02,.88,9.59,.95,12.74,1.28,2.92,.3,4.3,.81,13,3,12.04,3.03,12.72,3.47,19,5,13.76,3.34,13.06,1.84,25,5,4.64,1.23,7.7,2.24,17.5,4.82,2.77,.73,5.16,1.36,8.5,2.18,3.85,.95,10.51,2.54,18.97,4.26,.65,.13,1.31,.26,1.32,.26s3.85,.77,7.71,1.48c6.39,1.17,15.49,2.3,24,4,11.91,2.38,17.87,3.57,25,6,6.21,2.11,9.96,3.91,13,2,2.29-1.44,2.59-3.99,4-12,1.24-7.02,2.84-13.97,4-21,.94-5.68,2-11.33,3-17,2.92-16.63,4.39-24.94,6-33,2.44-12.16,4.56-21.13,5-23,1.07-4.49,1.66-6.76,7-27,2.72-10.32,5.16-20.71,8-31,0,0,1.95-7.07,4-18,2.34-12.5,2.16-16.28,0-18-1.73-1.38-3.58-.53-10,0-1.72,.14-6.15,.09-15,0-7.4-.08-12.77-.44-21-1-15.55-1.06-14.74-1.58-24-2-5.64-.25-6.59-.09-24,0-14.43,.08-21.65,.11-25,0-14.84-.51-16.7-1.67-32-2h-17c-25.02,0-24.93,0-25,0-9.4,.35-10.8,.85-15,0-4.56-.92-6.97-2.33-9-1-2.2,1.44-1.97,4.79-2,11,0,1.83-.34,8.55-1,22-.36,7.36-1,15.99-1,16-1.76,7.51-2.58,13.64-3,18-.41,4.3-.4,6.41-2,9-1.72,2.77-3.46,3.12-10,8-5.59,4.16-6.27,5.36-7,5-2.37-1.18,3.65-14.49,8-34,3.01-13.51,5.27-23.63,5-37-.33-16.72-4.34-24.87,1-30,2.44-2.35,5.46-2.74,17-3,21.65-.5,29,0,29,0,26.99,1.83,22.02,.27,44,2,24.83,1.96,26.04,3.54,44,4,9.98,.26,10.11-.22,28,0,15.98,.2,23.98,.29,33,1,20.65,1.62,21.73,3.77,34,3,10.24-.65,13.33-2.39,16,0,4.84,4.34-.3,14.64-7,40-3.54,13.4-1.13,6.83-9,40-4.57,19.29-5.08,20.2-9,37-1.48,6.34-1.14,5.05-8,36-3.48,15.71-9.66,30.97-11,47-.7,8.45-.47,14.61-5,18-4.67,3.5-10.8,1.35-23-1-17.87-3.45-15.77-.98-31-4-28.4-5.63-48.94-16.82-52-12-1.12,1.76,.95,4.3-1,8-1.34,2.54-3.6,3.76-6,5-7.88,4.06-11.82,6.09-15,7-16.4,4.7-28.34,1.35-29,4-.71,2.86,12.73,8.47,14,9,7.74,3.23,9.38,2.44,20,6,7.8,2.61,12.15,4.08,18,7,6.11,3.05,8.5,5.04,13,5,4.01-.03,6.69-1.64,11-4,16.51-9.03,15.07-6.79,20-10,8.73-5.69,13.09-8.54,16-14,5.23-9.82,4.05-24.02-3-29-2.36-1.66-4.1-1.4-10-2-2.78-.28-11.18-2.19-28-6-12.63-2.86-10.39-2.61-25-6-17.58-4.07-22.35-4.79-33-8-8.39-2.53-7.13-2.6-15-5-20.25-6.18-30.37-9.27-41-6-5.88,1.81-9.92,5.2-18,12-6.1,5.13-12.74,11.85-20,22-12.65,17.68-19.85,27.74-21,41-2.16,24.83,17.45,54.14,34,53,11.83-.82,24.21-17.34,21-29-4.24-15.4-33.94-15.98-36-16-26.2-.24-45.09,17.59-54,26-11.19,10.56-39.62,37.4-35,68,5.23,34.62,49.43,51.94,70,60,31.92,12.51,64.85,15.78,136,8,41.92-4.59,97.78-13.08,163-30"/>
</svg>