<?xml version="1.0" encoding="UTF-8"?>
<svg id="_레이어_1" data-name=" 레이어 1" xmlns="http://www.w3.org/2000/svg" viewBox="0 0 725.18 560.56">
  <defs>
    <style>
      .cls-1 {
        fill: #fff;
        stroke: #000;
        stroke-miterlimit: 10;
        stroke-width: 3px;
      }
    </style>
  </defs>
  <path class="cls-1" d="M25.96,166.08c-1.63,.73-6.46,2.62-12,1-6.61-1.93-10.75-7.83-12-13-2.06-8.52,3.24-17,7-23,4.54-7.25,7.96-8.98,8-14,.04-5.83-4.54-6.78-5-12-.4-4.51,2.59-8.74,20-24,12.66-11.1,17.85-14.8,17-19-.97-4.8-8.56-3.87-11-9-5.9-12.39,25.66-44.53,39-39,4.07,1.69,5.59,6.54,9,6,4.75-.76,4.19-10.59,10-13,4.98-2.07,8.59,3.83,17,6,9.8,2.53,13.5-3.25,33-8,10.27-2.5,27.17-6.62,32,0,3.77,5.16-2.32,13.41,1,16,3.21,2.51,9.63-4.66,22-9,3.97-1.39,21.18-7.43,37-1,8.68,3.52,11.28,8.5,19,8,5.76-.37,6.46-3.29,14-5,8.92-2.03,20.22-.73,22,4,1.46,3.87-4.51,7.27-3,12,1.06,3.32,4.66,3.73,11,7,5.91,3.04,14.55,7.5,18,15,3.33,7.23-1.34,10.44,2,18,3.09,6.99,8.31,7.07,14,13,9.58,9.99,9.22,24.84,9,34-.29,11.92-.69,28.32-12,35-12.29,7.25-30.28-1.21-38-8-4.83-4.25-9.18-9.83-9.18-9.83,0,0-1.48-1.89-7.82-11.17,5.62,12.98,4.37,19.97,2,24-2.17,3.68-10.71,13.3-8,10,4.72,4.03,7.2,9.77,6,15-1.44,6.28-7.6,9.31-9,10-5.86,2.88-8.22,.12-15,3-2.49,1.06-4.99,3.04-10,7-7.91,6.26-8.19,7.84-11,8-3.87,.23-9.47-2.41-11.94-5.88-.24-.34-.5-.76-1.06-1.12-3.05-1.95-8.73,2.06-10,3-3.97,2.94-4.8,5.49-7,8-3.87,4.4-9.58,5.27-21,7-13.89,2.11-20.83,3.16-26-1-4.58-3.68-4.71-8.86-8-9-3.73-.16-4.26,6.46-10,9-7.15,3.16-16.35-2.68-20-5-6.06-3.84-4.89-5.4-14-13-3.95-3.3-3.53-2.47-15-11-7.4-5.51-11.1-8.26-12-9-7.87-6.5-9.44-9.14-13-9-4.09,.16-7.51,3.85-9,7-1.81,3.83-1.26,7.87,0,12,5.07,16.65,19.84,29.23,26,34,1.13,.87,7.28,5.59,14,13,4.75,5.24,5.89,7.53,6,10,.22,4.87-3.71,6.3-7,13-3.1,6.32-3.06,12.07-3,20,.05,6.02,.09,12.1,3,19,3.57,8.46,7.29,8.3,8,14,.67,5.35-2.49,6.48-7,19-3.22,8.93-4.79,13.49-3,18,1.93,4.88,5.57,4.73,7,10,1.57,5.78-2.23,8.07,0,12,1.83,3.22,5.06,2.87,9,8,.25,.33,.9,1.21,2.21,2.98,3.41,4.61,3.44,4.73,3.79,5.02,2.77,2.35,8.7,1.48,12-1,7.05-5.29,5.99-20.82,1-23-5.15-2.26-9.51,11.9-32,28-6.87,4.92-13.26,8.46-14,15-.37,3.26,1.04,3.92,4,14,3.03,10.31,2.35,12.34,5,15,3.8,3.82,9.43,3.92,14,4,12.18,.21,16.37-5.85,23-3,5.21,2.24,3.93,6.56,9,9,5.26,2.53,10.85-.07,26-7,23.63-10.8,23.79-10.75,25-12,9.43-9.76,12.57-26.11,9-39-.52-1.88-1.88-4.69-3.08-7.45-5.99-13.79-7.45-13.56-7.92-17.55-1.15-9.91,7.02-18.84,9-21,1.11-1.21,4.28-4.49,8.72-7.68,2.02-1.46,6.28-4.32,6.28-4.32-1.7,.06-9.18,.17-15-5,0,0-4.77-4.24-6.88-11.56-.07-.23-.12-.44-.12-.44-1.23-4.56-.32-6.35-1-7-1.67-1.62-13.56,3.2-15,11-1.18,6.4,5.23,11.78,11,18,23.08,24.89,30.74,57.62,32,63,2.36,10.08,5.64,19.92,8,30,1.93,8.27,2.81,12.99,7,16,4.46,3.21,7.74,.94,21,1,15.79,.08,19.28,3.34,27,0,1.59-.69,7.2-3.2,11-9,6.26-9.57,.44-17.18,3-35,1.44-9.99,3.32-7.92,6-21,1.55-7.57,3.28-19.75,2-34-.55-6.11-1.06-6.05-6-28-4.69-20.85-7.04-31.38-7-36,.12-15.28,4.75-19.8,1-31-2.36-7.03-4.75-6.95-8-16-1.02-2.84-7.58-21.1-1-26,3.43-2.55,9.87-1.05,14,2,6.51,4.81,4.68,11.56,10,28,2.59,8.01,5.11,15.79,11,24,8.11,11.31,13.53,10.74,16,19,2.65,8.86-2.99,11.47-1,23,1.17,6.74,3.32,7.12,9,20,4.81,10.91,7.22,16.36,8,23,1.67,14.2-5.07,16.71-3,30,1.76,11.28,6.9,11.31,8,22,1.5,14.54-7.07,23.65-4,26,2.62,2.01,11.55-2.54,16-10,4.74-7.94,.61-12.82,4-21,5.51-13.29,24.87-20.83,31-16,4.57,3.6,0,12.65,4,15,6.32,3.71,19.3-17.92,34-15,6.04,1.2,5.43,5.17,15,8,8.85,2.62,12.24,.06,18,4,4.4,3.01,8.96,8.95,9,9,8.55,4.55,10.2,7.81,10,10-.27,2.89-3.73,3.53-10,10-5.15,5.32-4.16,6.28-7,8-5.73,3.47-9.22-.79-19,1-5.24,.96-4.54,2.23-16,6-5.91,1.94-8.87,2.91-11,3-9.69,.39-12.09-6.36-20-6-8.41,.38-8.74,8.15-17,9-10.34,1.06-14.4-10.64-24-9-7.08,1.21-6.6,7.88-15,9-5.26,.7-12.74-.95-16.41-3.64-.21-.15-.34-.26-.59-.36-3.52-1.41-7.27,8.31-14,10-6.66,1.67-10.22-6.03-16-5-7.28,1.3-13.76,15.66-12,26,5.15,30.21,84.61,49.27,94,34,4.85-7.88-6.96-28.16-20-30-19.46-2.75-49.92,34.41-43,57,12.5,40.8,147.62,36.39,190,35,47.63-1.56,72.3-7.44,132-5,35.55,1.45,64.66,5.09,84,8"/>
</svg>