<?xml version="1.0" encoding="UTF-8"?>
<svg id="_레이어_1" data-name="레이어 1" xmlns="http://www.w3.org/2000/svg" viewBox="0 0 1065.07 585.12">
  <defs>
    <style>
      .cls-1 {
        fill: #fff;
        stroke: #000;
        stroke-miterlimit: 10;
        stroke-width: 3px;
      }
    </style>
  </defs>
  <path class="cls-1" d="M1064.26,1.26c-20.91,13.33-52.55,31.99-93,50-115.62,51.48-141.48,25.66-191,61-83.63,59.67-40.39,155.05-143,235-20.55,16.01-54.36,41.58-95,35-62.05-10.04-90.29-86.99-92.96-94.59,2.07-18.11,2.76-30.69,3-39,.23-7.97,.26-19.94,1-30,.05-.73,.2-2.71,.23-5.37,.02-2,.08-8.71-1.23-14.63-.67-3.05-1.46-4.81-8-17-6.94-12.94-6.67-12.13-7-13-4.28-11.32-1.44-22.4,0-28,0,0,1.09-4.25,11-25,1.59-1.38,5.92-4.75,11-4,1.89,.28,5.56,1.38,11,10,8.7,13.79,9.79,27.61,10,31,.39,6.35,.91,14.9-3,24-.38,.89-.47,1-6,12-3.91,7.78-5.86,11.66-6,12-3.33,8.2-1.38,14.08,0,28,1.25,12.6-.25,8.74,1,28,1.25,19.14,2.85,24.84,0,35-2.37,8.44-5.74,12.56-7,14-5.82,6.63-13.03,8.84-17,10-4.33,1.27-13.91,4.07-24,0-12.22-4.93-17.2-16.73-19-21-3.42-8.11-2.99-18.18-2-38,.87-17.36,1.3-26.03,3-34,1.49-7.01,3.54-13.83,3-24-.42-7.9-2.13-12.78-3-15-1.73-4.39-8.98-10.5-9-14v-24c0-8.83,0-8.61,0-9,.13-5.23,.75-4.55,1-10,.09-1.88,.23-6.7,1-12,.17-1.18,.51-3.33,2-4,.97-.44,1.95-.02,2,0,.35,.15,1.38,.72,2,4,.44,2.36,.12,3.32,0,7v21c0,1.33,.02,2.67,0,4-.03,1.89-.08,2.6,0,4,.1,1.92,.32,3.01,1,4,.46,.68,.88,.93,1,1,.98,.57,2.22,.41,3,0,.43-.23,1.42-.9,2-4,.5-2.7,.18-4.5,0-7-.16-2.33,0-4.67,0-7,0-4.67,.27-9.34,0-14-.13-2.33,.08-4.67,0-7-.07-1.89-.18-3.68,1-5,.14-.16,1.04-1.17,2-1,1.04,.18,1.61,1.67,2,3,1.18,4.02,1.05,7.54,1,11-.05,3,0,6,0,9v8c0,3,.65,6.07,0,9-.04,.17-.43,1.91,0,4,.33,1.6,.82,1.91,1,2,.91,.47,2.29-.3,3-1,1.73-1.69,1.26-4.65,1-7-.56-5.05,.6-.24,0-16-.1-2.69-.29-6.8,0-11,.31-4.53,.71-2.48,1-6,.07-.87,.13-2.06,1-3,.1-.11,1.03-1.1,2-1,.8,.08,1.89,.93,3,5,1.38,5.06,1.01,8.56,1,19,0,1.67,0,3.33,0,5v29s-.52,5.52-3,10c-1.16,2.1-2.02,2.65-3,4-3,4.13-2.67,9.25-2,16,0,0,1.39,8.64,3,23,.63,5.61,2.61,23.23-1,37-.39,1.48-1.5,5.46-2,11-.4,4.49-.19,7.77,0,11,0,0,.65,11.05,1,22,0,0,.3,9.23-1,20-.32,2.64-.91,6.81-4,10-1.09,1.12-2.22,1.85-4,3-1.5,.97-4.39,2.83-8,4-4.34,1.41-7.87,1.22-12,1-4.58-.24-7.9-1.02-12-2-5.82-1.39-10.09-2.94-13-4-6.86-2.51-11.82-4.94-16-7-5.26-2.6-7.89-3.89-11-6-2.78-1.88-5.19-3.92-10-8-4.04-3.42-6.06-5.14-8-7-1.32-1.27-5.39-5.27-11-13-6.64-9.15-10.18-16.27-17-30-2.83-5.7-4.62-9.67-6-15-1.23-4.74-.61-4.7-2-10-2.07-7.94-3.75-9.19-5-16-.54-2.93-.19-2.48-1-9-.84-6.74-1.5-9.56-2-13-1.31-8.97-.63-16.18,0-23,.77-8.27,2.19-14.49,3-18,1-4.33,1.99-7.69,3-11,5.54-18.11,8.31-27.17,13-36,4.53-8.54,9.09-14.16,13-19,3.18-3.93,14.34-17.3,33-30,10.47-7.13,19.31-11.32,23-13,5.13-2.33,13.9-6.26,26-9,7.1-1.61,12.4-2.07,23-3,11.68-1.02,21.25-1.82,34-1,11.7,.75,19.57,2.45,22,3,0,0,7.12,1.61,14,4,29.27,10.2,52.99,34.93,54,36,9.82,10.41,15.67,19.67,19,25,10.69,17.11,16.2,32.6,19,42,8.11,27.2,7.35,49.39,7,56-.97,18.2-4.84,31.65-7,39-3.71,12.59-8.28,27.65-20,44-1.75,2.44-9.9,13.62-24,25-18.27,14.75-35.62,21.04-44,24-17.39,6.14-26.19,9.22-39,9-9.68-.16-17.44-2.14-24.54,3.09-6.22,4.59-10.64,13.78-10.46,13.91,0,0,.07,.02,.21,.04,.06,.01,.14,.03,.25,.05-1,1.78-12.09,15.46-13.46,29.91-.82,8.68,2.06,15.54,4,20,40.53,93.26,60.8,139.89,80.46,152.09,60.53,37.54,167.94,17.78,202.54-48.09,11.18-21.29,21.03-59.34,3-86-34.71-51.32-162.6-45.45-226.54,15.09-45.12,42.72-34.62,90.17-81.46,114.91-39.28,20.74-84.04,7.12-117.04-3.41-30-9.58-247.34-83.5-262-273C-6.86,166.34,68.39,79.79,87.26,59.26"/>
</svg>