<?xml version="1.0" encoding="UTF-8"?>
<svg id="_레이어_1" data-name=" 레이어 1" xmlns="http://www.w3.org/2000/svg" viewBox="0 0 961.76 344.28">
  <defs>
    <style>
      .cls-1 {
        fill: #fff;
        stroke: #000;
        stroke-miterlimit: 10;
        stroke-width: 3px;
      }
    </style>
  </defs>
  <path class="cls-1" d="M.73,224.31c9.07-5.09,16.16-9.7,21-13,7.79-5.32,9.37-6.98,16-11,4.55-2.76,10.95-6.59,20-10,5.13-1.93,10.95-4.08,19-5,3.47-.4,8.56-.95,15,0,2.44,.36,6.01,1.07,18,6,8.98,3.69,13.47,5.54,18,8,1.74,.95,4.21,2.35,21,14,10.5,7.29,11.57,8.15,15,10,5.48,2.95,10.84,5.84,18,7,9.05,1.46,16.28-.6,21-2,5.24-1.55,24.85-7.2,34-24,4.69-8.6,4.51-16.21,9-17,3.42-.6,4.86,3.57,12,7,7.53,3.62,14.69,3.2,18,3,5.07-.3,13.38-.79,20-7,1.67-1.57,7.24-6.79,7-14-.12-3.67-2.61-7.06-3.87-8.99-1.56-2.38-3.09-3.96-4.13-5.01-8.04-8.08-12.03-12.27-16-13-9.43-1.74-17,5.07-18,6-1.75,1.62-8.63,8.01-7,16,1.48,7.26,8.93,10.55,10,11,7.84,3.32,12.17-4.68,27-8,11.04-2.48,10.5,1.19,25-1,14.64-2.21,21.44-6.88,26-3,2.93,2.49,1.08,5.24,4,11,4.15,8.19,12.47,11.68,18,14,5.42,2.28,17.85,7.49,25,2,1.67-1.28,4.41-4.19,6.19-8.2,.92-2.08,1.3-3.79,1.55-4.99,.35-1.63,1.16-6.1,.26-11.81-.91-5.8-1.96-12.47-7-16-7.24-5.08-20.71-2.28-25,6-2.96,5.72-1.39,13.77,3,19,9.82,11.69,27.07,1.33,43,14,5.05,4.02,2.63,4.52,12,14,4.96,5.02,12.51,11.83,23,18,6.89,4.05,9.58,6.94,13,6,3.66-1,3.69-4.51,8-7,5.86-3.39,10.79,.2,16-1,8.78-2.02,12.4-16.46,15-26,4.33-15.92,5.76-33.81,2-64-3.65-29.36-5.79-46.5-16-68-6.11-12.87-13.78-29-31-43-3.37-2.74-39.99-31.82-67-20-6.41,2.81-7.44,5.8-27,17-9.25,5.3-14,7.99-20,10-5.56,1.86-18.45,6.03-33,3-9-1.87-8.48-4.38-25-12-15.87-7.32-24.28-11.2-35-11-13.63,.26-23.58,6.98-31,12-15.78,10.67-23.57,24.14-31,37-8.23,14.25-12.14,26.13-16,38-2.87,8.83-8.09,25.91-11,48-.89,6.76-2.36,20.01,0,36,1.04,7.05,2.37,11.54,5,16,1.09,1.85,6.55,11.08,17,15,14.48,5.43,30.4-2.4,39-11,6.41-6.41,7.01-11.51,14-29,1.1-2.74,11-27.52,17-37,20.9-33.02,96.52-41.74,136-12,12.95,9.76,25.78,26.5,30,32,12.3,16.05,17.97,28,22,35,20.17,34.97,69.94,68.03,115,65,29.16-1.96,28.25-17.15,67-22,18.22-2.28,55.58-6.96,80,17,13.53,13.28,26.6,38.8,17,61-11.04,25.52-44.42,29-54,30-5.14,.54-41.19,3.79-62-19-29.24-32.01-13.21-98.77,25-127,35.84-26.48,84.01-13.75,102-9,63.67,16.82,74.4,58.59,121,65,24.94,3.43,62.18-2.99,113-51"/>
</svg>