<?xml version="1.0" encoding="UTF-8"?>
<svg id="_레이어_1" data-name="레이어 1" xmlns="http://www.w3.org/2000/svg" viewBox="0 0 522.01 214.95">
  <defs>
    <style>
      .cls-1 {
        fill: #fff;
        stroke: #000;
        stroke-miterlimit: 10;
        stroke-width: 3px;
      }
    </style>
  </defs>
  <path class="cls-1" d="M.63,43.5c2.03,.94,5.1,2.17,9,3,1.76,.38,3.53,.59,7,1,4.63,.55,6.95,.82,10,1,5.05,.29,9.24,.16,12,0,2.49-.15,8.02-.56,15-2,4.42-.91,10.17-2.1,17-5,5.37-2.28,4.45-2.67,15-8,4.5-2.27,8.02-4.04,13-6,1.91-.75,6.22-2.39,12-4,7.23-2.01,10.84-3.02,15-3,4.39,.02,3.12,.89,13,2,3.11,.35,5.72,.54,9,2,.51,.23,2.61,1.18,5,3,1.33,1.01,3.24,2.49,5,5,1.22,1.74,2.71,3.87,3,7,.22,2.41-.39,4.2-1,6-.96,2.84-1.83,5.39-4,6-2.03,.57-3.92-.93-4-1-1.31-1.08-1.9-2.78-2-6-.15-4.63,.84-8.46,2-12,.94-2.85,2.3-5.94,5-12,3.58-8.06,4.17-8.97,5-10,1.16-1.45,4.1-4.78,9-7,1.9-.86,4.46-1.99,8-2,4.34,0,7.42,1.67,8,2,3.11,1.75,4.73,4.11,6,6,.75,1.12,2.66,4.16,4,10,1.33,5.78,1.18,10.31,1,15-.26,6.81-1.22,11.87-2,16-2,10.65-4.75,18.58-6,22-1.09,2.97-2.39,5.98-5,12-3.19,7.36-4.83,11.12-7,15-2.66,4.75-4.89,8.67-9,13-1.93,2.04-5.01,5.23-10,8-4.61,2.56-8.69,3.57-11,4-3.5,.66-6.49,1.22-10,0-3.27-1.13-5.29-3.2-6-4-3.39-3.79-3.73-8.31-4-12-.37-4.95,.64-8.74,1-10,1.66-5.74,4.75-9.39,7-12,4.13-4.78,8.3-7.36,11-9,1.46-.89,7.96-4.74,18-7,4.09-.92,9.39-1.28,20-2,10.16-.69,10.33-.41,15-1,5.7-.73,11.21-1.43,18-4,8.56-3.25,14.25-7.6,16-9,6.35-5.06,10.04-10.22,12-13,.67-.94,1.92-2.78,7-12,3.19-5.78,6.2-8.02,7-13,.31-1.91,.87-5.4-1-7-2.66-2.27-8.51,.72-11,2-4.77,2.44-7.86,5.6-10,8-3.51,3.94-7.98,9.05-12,18-4.89,10.89-5.67,19.84-7,35-.74,8.48-.83,15.32-1,29-.16,12.49-2.03,19.29,0,20,1.91,.67,4.39-4.87,15-16,2.57-2.7,4.79-4.85,7-7,5.54-5.38,8.31-8.08,12-11,3.89-3.08,8.74-6.44,11-8,.74-.51,4.36-3.01,8-7,1.15-1.26,2.38-2.76,3-5,.28-1,.8-2.92,0-5-.92-2.38-3.01-3.48-4-4-3.2-1.68-6.39-1.24-8-1-5.35,.81-8.88,4.02-11,6-3.15,2.94-4.79,5.83-6,8-1.35,2.42-4.4,8.02-5,16-.44,5.83-.87,11.49,3,16,3.67,4.27,8.96,4.9,10,5,5.3,.52,9.28-1.96,14-5,2.06-1.33,6.62-4.47,14-13,4.05-4.69,6.7-8.46,12-16,1.72-2.44,6.24-8.94,12-18,1.28-2.02,3.86-6.35,9-15,4.64-7.8,7.12-12.09,7-18-.08-3.91-.07-5.4-1-6-.38-.25-1.97-1.07-8,3-6.43,4.34-10.29,9.11-11,10-1.41,1.76-5.1,6.58-9,15-4.19,9.04-6.12,16.85-7,21,0,0-2.36,10.37-1,36,.06,1.19,.23,3.76,2,5,1.91,1.34,4.69,.44,6,0,4.95-1.67,7.85-5.5,9-7,7.86-10.21,6.64-5.78,15-17,2.08-2.79,5.39-7.86,12-18,3.84-5.88,5.99-9.19,9-14,10.86-17.36,7.04-13.04,10-17,1.14-1.52,3.15-4.09,4-8,.26-1.21,1.37-6.28-1-8-1.93-1.4-5.2,.13-7,1-5.92,2.86-9.23,7.64-12,12-6.51,10.25-10,18-10,18-6.35,14.11-8.96,24.46-10,29-.31,1.37-2.62,11.86,0,22,.44,1.7,1.13,3.81,3,5,3.61,2.29,9.02-.48,12-2,5.28-2.7,8.52-6.47,15-14,2.43-2.82,5.43-6.54,7-12,1.32-4.59,.29-5.73,0-6-1.55-1.47-5.13-.09-7,1-3.47,2.04-4.89,5.39-6,8-.85,2-2.43,5.85-2,11,.18,2.14,.63,7.57,5,12,.81,.82,4.9,4.98,11,5,3.68,.01,6.31-1.48,9-3,4.79-2.71,7.55-6.16,9-8,4.8-6.1,6.32-12.18,7-15,1.22-5.07,1.11-8.85,1-13-.19-6.83-1.35-8.33-2-9-3.04-3.15-8.31-2.13-9-2-3.46,.67-8.24,2.98-9,7-.45,2.39,.69,4.43,1,5,5.02,9.04,26.53,8.08,28,8,17.67-.94,24.52-7.5,37-11,20.96-5.88,53.16-1.85,69,19,20.48,26.96,1.18,65.72,0,68-1.61,3.12-17.93,33.49-52,39-21.4,3.46-53.47-2.29-58-20-4.45-17.41,18.5-43.23,37-42,18.89,1.25,21.49,29.94,53,56,18.63,15.41,38.38,22.46,52,26"/>
</svg>