<?xml version="1.0" encoding="UTF-8"?>
<svg id="_레이어_1" data-name="레이어 1" xmlns="http://www.w3.org/2000/svg" viewBox="0 0 825.37 635.03">
  <defs>
    <style>
      .cls-1 {
        fill: #fff;
        stroke: #000;
        stroke-miterlimit: 10;
        stroke-width: 3px;
      }
    </style>
  </defs>
  <path class="cls-1" d="M1.17,61.19C6.96,54.01,43.35,10.31,99.17,11.19c42.58,.67,94.58,27.25,97,62,1.49,21.36-15.7,46.74-34,48-20.26,1.4-45.79-26.5-43-47,6.93-50.84,196.09-115.41,318-34,63.64,42.5,86.95,110.09,95.17,140.11-.03-.02-.06-.04-.09-.05-.04-.03-.09-.05-.09-.05,7.24,46.19,19.74,125.84,18.17,126.11-.05,0-.07-.07-.17-.11-2.41-.84-25.3,30.71-17.83,55.11,2.17,7.07,8.82,19.87,8.83,19.89,.07,.02,.14,.05,.17,.11,.56,.96-7.75,8.34-18,12-4.39,1.57-7.61,1.78-11,2-4.84,.32-6.2-.33-7-1-2.31-1.91-2.09-5.61-2-8,.28-7.34-.94-14.66-1-22-.12-13.95-.45-14.59,0-20,.38-4.53,.76-5.88,1-11,.23-5.01-.04-5.68,0-14,.05-10.02,.46-9.8,0-13-.66-4.58-1.61-5.86-2-11-.28-3.73,.17-3.65,0-8-.22-5.74-.4-10.22-3-14-2.1-3.05-3.27-2-6-5-4.94-5.42-2.18-10-7-20-2-4.16-4.28-7.09-5-8-3.34-4.2-5.13-4.75-8-8-4.46-5.05-2.97-6.93-7-13-4.47-6.74-6.9-5.32-13-13-3.35-4.23-2.65-4.7-8-13-3.47-5.39-6.28-9.1-10-14-9.87-13.02-10.55-11.9-14-18-3.53-6.24-5-11.26-7-11-1.08,.14-1.29,1.69-4,7-1.84,3.61-2.76,5.41-4,7-3.38,4.32-7.52,6.34-9,7-3.07,1.36-5.62,1.69-8,2-4.81,.62-8.84,.15-10,0-4.55-.6-4.82-1.47-7-1-2.7,.58-3.09,2.1-7,4-.2,.1-2.97,1.42-6,2-2.84,.54-5.11,.27-11-1-10.76-2.31-11.97-3.29-16-3-2.68,.19-4.45,.8-8,2-8.93,3.03-9.62,5.89-16,7-4.81,.84-5.83-.55-9,1-2.85,1.39-3.88,3.42-7,8-4.97,7.31-7.45,10.96-10,13-4.09,3.27-6.47,3.08-12,8-2.75,2.44-3.55,3.72-4,5-1.07,3.02-.16,5.9,2,11,3.07,7.27,4.9,11.57,9,18,2.66,4.17,4.62,7.24,8,11,5.34,5.95,7.65,6.31,10,11,1.01,2.02,3.46,6.92,2,12-.9,3.12-2.43,3.39-4,8-1.41,4.15-.65,5.37-2,7-1.68,2.03-4.56,2.21-11,2-14.13-.45-16.08-1.78-20,0-3.78,1.72-6.86,5.18-8,9-.3,1-.61,2.51,1,11,1.13,5.96,2.1,9.39,4,16,1.94,6.76,2.53,8.04,4,9,2.64,1.72,5.93,.95,10,0,2.35-.55,5.25-1.47,12-5,4.46-2.34,7.73-4.05,12-7,6.93-4.8,10.4-7.27,11-11,.74-4.66-2.6-8.54-3-9-.56-.63-3.46-3.77-8-4-.83-.04-2.83-.12-5,1-2.52,1.3-3.67,3.38-4,4-1.29,2.41-1.16,4.69-1,7,.13,1.93,.55,4.37,2,8,2.01,5.01,4.71,9.07,7,12,3.9,5,5.4,5.2,6,8,1.01,4.72-2.22,8.98-3,10-.41,.54-4.33,5.53-11,6-1.96,.14-5.43,.38-8-2-2.66-2.46-3.51-6.95-2-10,2.05-4.15,8.13-4.9,17-6,3.6-.45,3.8-.17,13-1,4.48-.4,6.77-.61,9-1,3.88-.68,8.23-1.47,13-4,3.5-1.86,5.9-3.13,7-6,.94-2.46,.87-5.92-1-8-3.2-3.55-10.76-2.1-15,1-8.87,6.48-9.33,24.68-2,29,4.65,2.74,11.96-.4,16-4,7.15-6.38,7.56-17.32,6-18-1.07-.47-4.63,3.24-4,6,.66,2.9,5.91,4.56,10,4,6.03-.82,11.51-6.71,11-12-.24-2.47-1.81-5.11-3-5-2.08,.19-2.88,8.77-3,10-.44,4.72,.35,5.08,0,11-.29,4.87-.93,6.26,0,7,2.44,1.95,10.56-4.64,11-5,3.26-2.68,5.27-5.34,8-9,3.62-4.85,6.1-6.2,6-9-.07-1.96-1.17-4.06-2-4-1.42,.09-.71,6.34-3,19-.67,3.73-1.44,7.09,0,8,.61,.39,1.62,.33,4-1,4.52-2.52,6.81-5.62,9-8,2.68-2.93,2.31-1.62,10-8,5.15-4.27,7.87-6.53,11-10,5.18-5.75,8.4-9.32,8-14-.33-3.95-3.22-8.45-7-9-2.85-.41-5.25,1.56-7,3-1.73,1.42-4.54,4.24-7,11-1.24,3.4-1.21,4.56-3,18-1.22,9.16-1.61,11.39,0,14,1.6,2.6,4.68,4.76,8,5,1.18,.09,4.55,.09,14-9,4.03-3.87,6.73-6.47,10-11,1.64-2.27,15.42-21.64,10-28-1.63-1.91-4.72-2.73-7-2-4.35,1.39-3.31,7.53-7,11-8.36,7.85-32.02-6.49-34-3-.69,1.21,1.44,4.15,4,6,9.81,7.1,26.5-1.43,28,2,.24,.54-.21,.68-1,4,0,0-.59,2.47-1,6,0,0-.62,5.37,2,21,.85,1.09,1.97,2.22,3,2,1.44-.3,1.49-2.97,3-7,.65-1.73,2.1-4.16,5-9,3.59-6,4.37-6.6,5-7,3.1-1.96,7.96-2.34,10,0,1,1.14,1,2.56,1,5,0,1.08-.09,4.57-2,9-1.26,2.92-2.04,3.3-2,5,.04,1.8,.97,4.21,3,5,1.73,.68,3.73-.03,5-1,4-3.08,1.09-9.2,4-12,3.96-3.81,16.25,.9,16,3-.77,6.42-117.98-21.02-149,22-1.57,2.17-15.67,21.72-9,34,.25,.46,3.56,6.37,9,7,4.71,.55,8.69-3.14,15-9,3.21-2.98,5.14-5.32,9-10,8.32-10.09,9.61-13.8,10-17,.37-3.02,.07-6.76-1-7-1.42-.33-3.97,5.6-5,8-1.93,4.5-2.8,8.15-3,9-1.36,5.82-1.31,8.75-2,15-1.25,11.25-2.03,18.29-5,19-1.9,.45-4.49-1.73-5-4-.63-2.82,2.01-5.65,4-7,3.32-2.25,5.49-.83,12-2,2.94-.53,7.1-1.28,11-4,2.36-1.64,2.02-2.19,8-10,5.01-6.54,7.02-8.46,7-12,0-.59-.02-3.83-2-5-.79-.47-2.36-.89-6,1-2.65,1.37-8,4.6-15,15-4.19,6.23-4.78,8.78-5,10-.33,1.81-.98,5.76,1,10,2.54,5.42,7.57,7.45,9,8,1.28,.49,4.23,1.59,8,1,.9-.14,5.72-.98,9-5,3.26-4,2.03-7.53,5-9,1.8-.89,2.54,.26,6,0,1.25-.09,7.49-.57,10-5,1.49-2.62,2-6.77,0-9-3.36-3.73-12.78-.95-18,4-1.23,1.17-3.13,3.01-4,6-1.78,6.1,1.66,12.6,6,16,1.21,.95,3.58,2.75,7,3,5.59,.4,9.67-3.67,11-5,7.47-7.46,6.8-20.45,5-21-.92-.28-3.05,2.43-3,5,.06,3.25,3.57,6.21,7,7,.65,.15,2.17,.48,4,0,4.69-1.23,6.49-6.5,7-8,1.27-3.73,1.34-8.55,0-9-1.25-.42-3.78,2.97-5,6-.41,1.03-.69,2.06-1,4-1.09,6.9,.03,9.07-1,15-.55,3.17-1.28,4.89-1,5,.48,.19,2.91-4.85,8-14,3.1-5.57,4.7-8.19,8-10,1.01-.56,4.95-2.55,7-1,1.54,1.16,.62,3.25,2,6,1.29,2.58,3.61,3.78,6,5,6.07,3.12,12.02,2.4,15,2,4.52-.61,8.01-1.07,10-4,1.8-2.65,2.16-7,0-9-2.87-2.66-8.61,.29-10,1-4.16,2.14-6.18,5.56-7,7-1.44,2.53-4.68,8.19-2,13,2.55,4.58,8.57,4.98,9,5,4.84,.25,8.4-2.79,11-5,3.69-3.15,2.74-4.12,6-7,3.87-3.42,5.95-2.71,14-7,4.92-2.63,8.26-4.41,8-6-.33-2.01-6.41-3.8-11-2-8.04,3.15-11.83,17.46-7,22,2.71,2.55,8.65,2.48,12,0,2.26-1.67,2.22-3.6,6-7,2.06-1.85,4.5-3.46,5-3,.51,.48-1.76,2.53-2,6-.03,.47-.25,4.37,2,6,3.02,2.18,8.54-1.12,10-2,5.45-3.26,6.9-7.42,8-7,2.2,.84-2.47,18.07-3,20-5,18.25-7.25,17.1-8,26-.65,7.69,.69,12.55-3,16-2.58,2.41-5.59,2.23-8,6-1.56,2.43-1.07,3.69-3,6-1.88,2.25-4.17,3.23-6,4-3.22,1.34-5.03,1.24-10,2-7.59,1.16-6.59,1.89-10,2-7.78,.26-9.47-3.64-14-2-3.46,1.25-5.79,4.72-8,8-2.34,3.48-2.18,4.75-4,6-2.47,1.7-4.84,.78-11,0-12.41-1.58-13.99,.72-20-2-3.55-1.61-4.25-2.98-7-3-3.71-.03-6.81,2.45-10,5-4.73,3.78-4.44,5.31-7,6-4.28,1.15-6.3-2.81-11-2-2.66,.46-2.08,1.74-8,6-5.83,4.2-8.74,4.65-12,9-1.23,1.63-.92,1.72-2,3-3.52,4.2-8.44,5.34-11,6-4.52,1.16-18.83,5.19-27,13-3.03,2.9-3.73,4.9-4,6-1.06,4.37,1.51,7.66,0,9-1.25,1.11-4.11-.16-6-1-4.2-1.86-4.76-3.91-8-5-2.42-.81-5.08-.66-7,0-7.12,2.44-8.37,13.34-10,13-1.15-.24-.65-5.67-1-16-.22-6.43-.33-9.65-1-12-1.59-5.56-3.65-6.03-8-15-2.09-4.32-3.19-6.58-4-10-1.59-6.7,.22-8.11-1-15-1.42-8.05-4.21-7.96-4-13,.25-5.91,4.14-7.08,7-15,2.6-7.2-.06-7.75,2-15,3.02-10.64,9.19-11.01,13-23,1.64-5.17,1.88-9.46,2-12,.09-1.92,.29-8.18-3-21-1.93-7.54-2.76-8.34-5-16-4.22-14.47-3.23-18.33-5-22-7.08-14.66-55.34-20.23-86,2-47.43,34.39-26.53,116.33-25,122,6.38,23.71,25.31,69.34,53,70,14.69,.35,32.36-11.95,33-26,.67-14.82-17.73-29.01-33-29-24.53,.02-49.55,36.71-46,70,4.15,38.92,45.63,57.28,57,60,7.41,1.77,23.24,1.97,26,2,1.22,.02,3.01-.03,5.17-.58,.27-.07,2.02-.52,3.83-1.42,4.12-2.05,4.46-4.38,8-7,4.24-3.14,5.85-1.34,11-5,3.07-2.18,2.75-3,5-4,3.29-1.47,4.81-.09,11,0,6.95,.11,8.66-1.57,13,0,1.23,.44,4.69,1.7,5,4,.31,2.33-2.77,4.46-5,6-3.97,2.75-6.1,2.6-11,5-5.36,2.62-4.31,3.53-8,5-4.73,1.88-7.09,.65-16,1-9.16,.36-9.54,1.78-12,1-8.8-2.81-15.55-24.73-9-37,11.78-22.05,68.89-17.27,108-6,51.4,14.82,58.88,37.15,87,38,60.21,1.82,104.54-90.46,110-102,53.85-113.87-11.58-220.68-19.14-225.43-.75-.47-1.85-1.21-4.03-2.67-11.08-7.44-11.86-8.69-12-10-.43-3.89,4.65-8.47,5-9,.56-.24,7.71-3.21,14,1,3.14,2.1,6.12,6.03,6,10-.31,10.06-20.29,12.69-21,18-2.73,20.53,287.02,45.52,303,134,1.21,6.73,.6,12.48,0,16"/>
</svg>