<?xml version="1.0" encoding="UTF-8"?>
<svg id="_레이어_1" data-name=" 레이어 1" xmlns="http://www.w3.org/2000/svg" viewBox="0 0 638.23 323.14">
  <defs>
    <style>
      .cls-1 {
        fill: #fff;
        stroke: #000;
        stroke-miterlimit: 10;
        stroke-width: 3px;
      }
    </style>
  </defs>
  <path class="cls-1" d="M.06,1.5c5.81,.25,15.28,1.47,25,7,9.27,5.27,14.28,11.9,21,21,7.77,10.52,14.66,19.85,18,34,4.48,19,.36,37.44,0,39-1.5,6.43-3.31,10.54-3,18,.33,7.83,2.76,13.55,6,21,3.57,8.19,6.89,15.82,14,24,9.73,11.19,20.43,16.37,26,19,6.95,3.28,18.02,8.35,33,8,14.81-.35,24.85-5.79,27-7,5.88-3.31,13.37-7.52,16-16,1.95-6.31,1.56-16.08-4-19-6.34-3.33-15.32,4.4-16,5-2.74,2.41-6.73,7.07-9,19-3.99,20.94,2.23,38.39,4,43,2.32,6.04,7.11,18.11,19,29,11.03,10.1,22.37,13.87,29,16,13.81,4.43,25.03,4.25,35,4,7.75-.19,24.02-1.23,44-8,15.8-5.35,38.25-12.95,56-34,6.74-8,17.13-20.66,18-39,.26-5.43,1.11-23.33-11-33-10.92-8.73-25.87-5.56-38-3-10.57,2.23-17.53,6.23-22.32,9.99-4.5,3.54-10.06,8.03-10.68,15.01-.42,4.74,1.4,10.98,5,12,4.57,1.3,12.2-5.78,13-13,1.23-11.12-13.91-21.17-24-25-4.22-1.6-12.31-4.67-22-2-15.29,4.21-21.24,19.02-22,21-4.3,11.22-1.32,21.21,1,29,4.87,16.33,15.11,26.34,20,31,7.34,7,14.89,11,30,19,14.73,7.8,22.09,11.7,33,15,14.21,4.3,25.59,4.93,45,6,21.88,1.21,23.9-.59,37,2,7.97,1.58,21.83,5.13,33,16,3.34,3.25,8.16,8.07,7,13-1.34,5.69-9.73,7.71-11,8-7.02,1.58-15.18-.87-20-6-9.26-9.86-5.86-29.23,4-40,9.2-10.05,22.31-10.75,27-11,3.76-.2,14.56-.31,33,10,16.67,9.32,20.1,16.26,38,31,18.1,14.91,27.14,22.36,41,27,30.45,10.2,57.6-1.48,61-3,16-7.17,25.99-17.82,31-24"/>
</svg>