<?xml version="1.0" encoding="UTF-8"?>
<svg id="_레이어_1" data-name=" 레이어 1" xmlns="http://www.w3.org/2000/svg" viewBox="0 0 284.07 369.75">
  <defs>
    <style>
      .cls-1 {
        fill: #fff;
        stroke: #000;
        stroke-miterlimit: 10;
        stroke-width: 3px;
      }
    </style>
  </defs>
  <path class="cls-1" d="M34.63,78.2c-.26,2.17-.79,5.34-2,9-.9,2.71-1.78,4.53-4,9-3.77,7.61-5.66,11.41-6,12-2.32,4.01-4.78,8.26-9,13-1.35,1.52-3.97,4.3-8,9-2.1,2.44-3.58,4.24-4,7-.12,.76-.49,3.45,1,6,.91,1.56,2.28,2.39,5,4,4.53,2.69,8.2,3.77,9,4,3.24,.93,4.86,1.4,7,1,1.16-.22,3.67-.91,3.97-.99h.03c1.21-.35,2.06-1.89,2-3-.07-1.16-1.14-1.83-3-3-2.23-1.4-4.13-2.6-6-2,0,0-.3,.1-3,2,.89,4.89,0,8.03-1,10-.62,1.22-1.75,2.82-4,6-1.36,1.92-2.23,3.04-3,5-.32,.82-.84,2.17-1,4-.1,1.14-.34,4,1,6,1.4,2.09,3.95,2.38,7,3,7.06,1.43,8.05,2.77,10.42,3.52,.57,.18,1.15,.29,1.15,.29,0,0,.7,.14,1.43,.2,1.84,.15,7.4-.18,10,0,3.22,.22,4.77,.55,5,0,.45-1.1-4.83-4.33-8-6-3.39-1.79-3.13-1.08-7-3-9.34-4.64-10-5-10-5-1.34-.74-2.72-1.53-4-1-1.41,.59-1.83,2.32-2,3-1.24,5.06,3.66,8.41,2,12-.64,1.38-1.58,1.35-2,3-.52,2.02,.43,3.88,1,5,.51,.99,1.69,3.31,4,4,.72,.22,1.49,.25,1.98,.27,1.5,.07,2.62-.19,3.02-.27,3.59-.77,5.08-.13,8-1,.5-.15,5.93-1.81,6-4,.11-3.41-12.74-8.46-16-5-1.57,1.67,.08,4.27,0,15-.01,2.09-.09,3.92-1,6-1.16,2.65-2.41,2.82-3,5-.63,2.33,.55,3.07,1,7,.55,4.81-1.01,5.67,0,8,1.29,2.99,4.93,4.08,8,5,3.47,1.04,6.79,1.32,13,1,1.68-.09,7.74-.44,17-2,4.12-.7,8.84-1.49,15-3,2.06-.5,5.37-1.35,10-2,4.75-.66,6.9-.55,9,0,1.1,.29,3.63,.98,6,3,1.88,1.6,2.25,2.83,5,8,1.33,2.49,3.22,5.92,5,9,1.71,2.96,3.17,5.34,4,9,.37,1.65,.77,3.49,0,4-1.31,.88-3.93-3.5-9-4-.87-.09-2.59,.27-6,1-7.15,1.52-6.94,1.91-9,2-3.93,.18-4-1.26-10-2-2.03-.25-5.11-.61-9,0-1.35,.21-4.91,.87-9,3-3.47,1.81-4.06,2.99-8,6-9.24,7.06-13.37,6.2-17,12-1.76,2.81-2.1,5.1-3,5-1.28-.15-2.49-5-1-9,1.1-2.94,3.32-4.53,4-5,.58-.4,3.06-2.12,6-2,3.99,.16,4.72,3.53,11,8,5.48,3.9,6.75,2.64,10,6,3.88,4.02,2.46,6.24,6,9,3.21,2.51,6.98,2.72,12,3,3.48,.2,5.64,.29,8-1,2.83-1.55,2.03-3.84,5-6,3.14-2.29,6.87-2.1,8-2,2.68,.25,2.6,1.18,6,2,4.1,.99,7.49,.42,10,0,.98-.16,6.02-1.01,6-2-.02-.81-3.41-.99-8-2-10.87-2.38-11.66-5.67-19-6-1.36-.06-.19,.1-11,1-4.8,.4-7.82,.6-11-1-.4-.2-4.31-2.2-4-4,.33-1.91,5.24-2.53,9-3,2.79-.35,7.55-.92,14,0,6.51,.92,11.23,2.85,14,4,3.22,1.34,4,2.35,8,4,4.35,1.8,8.54,3.53,10,2,1.1-1.15,.19-3.67-1-7-1.15-3.2-1.94-5.41-4-7-3.14-2.42-8.67-2.99-10-1-2.56,3.84,9.14,19.19,20,27,1.24,.89,4.87,3.41,8,8,3.27,4.79,4.55,9.72,4,10-.67,.34-3.39-6.58-11-13-3.19-2.69-7.52-5.53-8-5-.17,.19,.2,.78,1.08,2.06,2.67,3.86,5.11,6.91,5.92,7.94,2.18,2.8,3.27,4.2,4,6,2.33,5.75,.2,11.48,0,12-1.01,2.61-2.18,3.5-9,10-5.9,5.63-8.87,8.47-10,10-2.26,3.06-6.12,8.31-6,15,.08,4.42,1.83,6.37,1,7-1.93,1.46-13.5-7.35-20-20-4.59-8.93-4.95-16.45-5-18-.16-4.7-.4-11.53,4-18,4.04-5.95,9.75-8.27,14-10,5.11-2.08,12.16-3.68,13-2,.65,1.29-3.1,3.03-7,9-3.69,5.65-4.46,10.42-5,14-.86,5.75,.29,7.33,1,8,1.05,1,2.92,1.69,4,1,1.66-1.06-.29-4.27,1-9,.43-1.58,.81-1.8,4-7,4.43-7.22,4.11-7.44,5-8,5.26-3.28,19.02,3,23,14,.66,1.83,.14,1.91,0,14-.08,6.79-.12,10.19,0,13,.52,12.48,2.64,16.17,0,22-1.38,3.05-3.94,6.41-5,6-2.6-1.02,7.73-23.37,10-52,.78-9.79-.82-23.53-4-51-2.65-22.88-5.97-43.34-6-59-.02-10.26,1.39-13.18,0-22-.52-3.32-1.19-5.87,0-9,1.4-3.68,3.82-4.12,11-10,6.61-5.42,6.65-6.76,11-9,3.24-1.67,6.13-3.15,10-3,4.79,.19,6.45,2.72,11,2,3.56-.56,5.51-2.57,6-2,.6,.7-1.87,4.29-5,7-1.2,1.04-4.29,3.5-13,6-5.29,1.52-9.26,2.03-17,3-11.43,1.43-12.91,.86-14,0-1.61-1.27-2.04-2.91-3-14-1.28-14.69-.98-17.15,0-20,.55-1.58,1.87-5.29,5-9,3.7-4.37,6.16-4.29,8-8,.28-.56,2.91-6.07,0-11-2.04-3.45-6.74-6.53-11-5-5.35,1.91-6.99,9.99-5,12,.92,.93,2.86,.79,4,0,2.06-1.43,1.63-5.07,1-7-1.04-3.18-4.16-6.35-7-6-2.08,.26-1.97,2.14-5,4-2.47,1.52-4.98,1.68-10,2-2.86,.18-5.01,.09-7,0-4.78-.22-7.28-.33-10-1-1.39-.34-11.84-2.9-14-10-.87-2.85,.57-3.22,0-7-.69-4.55-3.18-6.68-8-13-4.56-5.97-6.84-8.96-8-12-.51-1.33-4.59-12.45,1-18,2.73-2.71,6.53-2.86,10-3,4.03-.16,12.26,.56,14,5,.61,1.55-.11,2.19-1,7-.35,1.9-1.27,6.96-1,12,.14,2.67,.43,7.18,3,12,2.12,3.97,4.76,6.22,8,9,4.56,3.9,8.67,5.89,11,7,3.33,1.58,5.65,2.67,9,3,1.55,.16,1.91,0,6,0,5.86,0,7.95,.29,8,0,.1-.58-8.27-1.37-17-5-6.93-2.88-15.78-6.56-20-15-3.65-7.3-3.99-18.45,0-27,1.71-3.66,4.6-7.7,3-10-.82-1.17-2.08-.84-6-2-4.17-1.23-7.7-2.28-9-5-1-2.1-.75-5.33,1-7,1.27-1.21,3.68-1.94,16,2,9.18,2.94,13.77,4.41,18,7,8.17,5.01,7.25,7.67,16,13,7.47,4.55,9.17,3.23,13,7,6.77,6.66,6.96,16.16,7,18,.02,1.03,.08,11.22-7,19-1.53,1.68-5.54,6.09-9,5-2.02-.64-3.55-3.06-3-4,1.02-1.76,8.18,3.6,17,2,7.43-1.35,12.13-6.92,13-8,0,0,2.51-3.09,7-19-4.79-1.09-7.44-.22-9,1-2.85,2.23-1.88,5.45-5,9-3.03,3.45-8.06,5.09-9,4-1.77-2.05,10.06-14.98,11-16,4.61-5,5.07-4.52,10-10,4.77-5.3,7.73-8.66,10-14,1.13-2.65,1.75-5.1,3-10,1.16-4.56,1.74-6.84,2-10,.42-5.24,.78-9.63-2-13-2.44-2.96-6.04-3.63-8-4-.49-.09-9.53-1.81-14,3-1.27,1.37-1.55,2.6-4,5-1.82,1.78-2.4,1.83-3,3-1.05,2.05,.1,3.17,0,7-.09,3.54-1.1,3.75-1,7,.03,.81,.17,5.46,2,6,1.15,.34,2.21-1.15,5-4,6.25-6.39,9.21-7.4,9-10-.16-1.98-2.04-3.32-3-4-5.69-4.05-11.62,.21-23-2-1.97-.38-4-1-4-1-4.14-1.2-6.14-2.31-8-3-6.22-2.3-12.47-.45-14,0-2.61,.77-8,2.37-10,7-.88,2.05-1.28,5.1,0,6,1.35,.95,3.19-1.5,8-3,5.27-1.65,7.07,.04,12-2,2.18-.9,2.32-1.43,5-3,0,0,6.55-3.84,14-5,9.37-1.46,15.49,2.23,16,1,.55-1.31-6.2-6.16-14-9-3.35-1.22-8.23-1.81-18-3-8.69-1.06-12.22-1.11-15,1-1.11,.84-3.13,2.37-4,5-.7,2.12-.21,3.6-1,4-1.14,.58-2.72-2.22-6-4-3.36-1.82-9-2.84-12,0-2.44,2.31-2.08,6.18-2,7,.34,3.68,2.5,6.09,4,8,6.83,8.67,3.83,11.51,10,19,4.2,5.1,4.76,2.78,12,10,5.38,5.37,6.49,8.06,12,12,3.44,2.46,7.5,5.28,11,4,2.85-1.04,3.01-3.93,5-6,5.6-5.81,20.54,.28,28,3,26.8,9.78,30.03,2.74,45,10,26.14,12.69,45.92,48.57,36,64-8.6,13.37-41.57,14.57-50,1-7.19-11.58,5.33-30.94,14-40,9.35-9.77,29.59-23.63,42-17,17.85,9.53,.55,51.33,14,125,2.74,14.99,5.95,26.93,8,34"/>
</svg>