<?xml version="1.0" encoding="UTF-8"?>
<svg id="_레이어_1" data-name=" 레이어 1" xmlns="http://www.w3.org/2000/svg" viewBox="0 0 510.4 345.94">
  <defs>
    <style>
      .cls-1 {
        fill: #fff;
        stroke: #000;
        stroke-miterlimit: 10;
        stroke-width: 3px;
      }
    </style>
  </defs>
  <path class="cls-1" d="M1.06,339.28c9.13-9.17,18.12-14.25,24-17,6.76-3.17,13.63-6.29,23-6,3.63,.11,9.82,.31,16,4,3.19,1.91,3.78,3.19,14,14,6.97,7.37,8.1,8.25,10,9,5.39,2.13,11.98,1.21,17-2,6.43-4.12,9.85-11.74,9-19-.16-1.35-1.25-10.62-9-14-6.4-2.79-15.32-.67-18,5-2.99,6.31,3.24,13.86,5,16,6.89,8.36,20.82,14.5,30,9,5.72-3.42,7.45-10.08,9-16,2.62-10.04,1.34-18.42,0-26-3.21-18.23-6.74-31.99-8-37-2.92-11.62-5.28-23.75-10-48-3.2-16.45-5.09-26.24-7-40-3.58-25.83-3.52-38.94,2-52,2.05-4.85,5.83-13.49,12-14,5.93-.49,11.5,6.75,14,12,8.92,18.74-6.58,43.07-11,50-8.36,13.12-10.51,9.81-25,28-16.85,21.14-23.14,37.17-26,46-3.71,11.46-6.18,19.5-3,29,4.47,13.38,16.75,19.52,20,21,3.19,1.45,15.89,6.72,30,1,16.07-6.51,21.05-22.05,22-25,1.07-3.34,7.9-24.61-6-37-8.61-7.67-21.83-8.97-32-4-14.72,7.2-21.1,26.58-15,38,4.23,7.92,13.47,10.18,25,13,6.84,1.67,20.88,4.93,38,0,23.35-6.72,35.57-23.79,39-29,3.98-6.06,17.87-27.16,11-46-3.3-9.05-9.02-11.08-13-25-1.94-6.8-3.96-14.25,0-21,2.79-4.76,8.23-8.63,14-9,5.72-.36,7.02,3.02,13,4,11.8,1.94,22.58-8.63,25-11,6.49-6.37,8.87-13.1,12-22,2.74-7.77,4.15-11.78,3-17-1.5-6.82-7.02-14.19-15-16-11.99-2.71-25.76,7.98-25,17,.59,7.04,10.11,13.85,18,13,12.88-1.39,20.5-23.1,22-37,.34-3.19-.1-10.13-1-24-1.08-16.67-2-27-2-27-1.71-19.16-2.66-23,0-25,3.47-2.61,8.06,1.69,25,7,4.95,1.55,13.99,4.38,25,6,16.47,2.42,20.99-.29,25,4,2.68,2.87,2.25,5.79,2,24-.19,14.12-.29,21.18,0,27,.75,15.19,2.64,17.05,2,28-.56,9.5-.9,15.32-5,21-5.13,7.11-16.12,13.97-25,10-4.96-2.22-9.52-7.93-9-14,.71-8.36,10.64-12.46,12-13,14.4-5.71,30.57,6.05,36,10,4.67,3.4,12.98,9.6,18,21,6.67,15.16,3.23,29.76,2,35-2,8.5-3.93,8.45-8,23-3.94,14.07-3.51,19.04-3,22,1.5,8.81,6.2,14.77,8,17,1.43,1.77,6.02,7.15,14,11,1.9,.92,10.4,4.84,22,4,5.2-.38,16.5-1.19,25-10,1.75-1.81,11.55-11.97,8-22-3.7-10.44-18.69-11.79-21-12-9.25-.83-21.95,2.33-27,12-.5,.96-4.27,8.18-1,14,3.66,6.51,14.05,7.56,21,5,8.76-3.23,12.26-12.28,14-17,4.43-12,.88-18.23,0-37-.33-7.09-1.15-24.57,3-45,2.91-14.35,6.86-23.18,2-33-.22-.44-4.86-9.59-10-9-4.46,.51-8.66,8.28-8,15,1.31,13.26,21.6,23,32,28,7.74,3.72,13.6,5.42,20,12,3.07,3.15,7.6,7.95,8,15,.39,6.87-3.2,15.33-8,16-5.62,.78-12.32-9.16-14-18-2.21-11.63,3.68-24.45,13-31,8.01-5.63,11.64-1.77,26-7,8.09-2.95,20.91-7.62,28-20,6.74-11.78,4.69-24.2,4-28-1.76-9.74-6.33-16.57-9-20"/>
</svg>