<?xml version="1.0" encoding="UTF-8"?>
<svg id="_레이어_1" data-name="레이어 1" xmlns="http://www.w3.org/2000/svg" viewBox="0 0 774.89 327.11">
  <defs>
    <style>
      .cls-1 {
        fill: #fff;
        stroke: #000;
        stroke-miterlimit: 10;
        stroke-width: 3px;
      }
    </style>
  </defs>
  <path class="cls-1" d="M.06,18.21c2.89,.11,6.63,.17,11,0,2.35-.09,6.87-.28,12-1,3.81-.53,6.67-1.18,17-4,13.72-3.74,12.41-3.62,18-5,7.12-1.76,12.74-2.82,19-4,5.86-1.11,8.86-1.67,12-2,6.55-.69,11.1-1.17,17,0,1.38,.27,6.81,1.43,13,5,3.32,1.92,7.51,4.33,11,9,2.31,3.09,3.57,7.1,6,15,1.2,3.91,2.59,8.47,4,15,1.63,7.58,2.79,12.97,3,20,.2,6.95-.63,11.98-2,20-1.86,10.88-3.04,12.33-5,22-2.61,12.86-4.2,20.66-3,31,.41,3.5,1.87,13.68,8,25,4.3,7.94,9,12.96,10,14,7.02,7.36,14.03,10.98,20,14,7.91,4,17.14,8.66,30,9,9.37,.25,16.51-1.91,20-3,10.92-3.41,18.21-8.79,21-11,8.26-6.54,12.71-13.4,15-17,3.32-5.22,6.63-10.43,8-18,.42-2.3,.61-5.87,1-13,.41-7.51,.21-8.95,0-10-.81-4.14-2.57-6.85-6-12-3.81-5.72-5.71-8.58-9-11-5.2-3.82-10.58-4.57-14-5-13.98-1.76-25.12,5.03-30,8-3.04,1.85-7.06,4.35-11,9-4.51,5.32-6.4,10.5-8,15-.64,1.8-2.62,7.62-4,20-.65,5.8-1.52,14.04-1,25,.61,12.72,1.07,22.44,6,34,2.12,4.96,6.67,15.33,17,24,4.33,3.64,10.22,6.42,22,12,8.46,4.01,15.26,7.19,25,10,3.02,.87,9.92,2.75,19,4,7.5,1.03,14.01,1.93,22,1,1.7-.2,5.43-.71,18-5,11.08-3.78,22.92-7.83,38-15,5.75-2.74,8.57-4.31,14-6,5.18-1.61,11.8-3.61,20-3,5.65,.42,5.5,1.59,15,3,6.66,.99,9.99,1.48,14,1,8.29-.99,14.19-5.03,17-7,6.6-4.63,4.19-5.69,13-13,4.09-3.4,7.81-5.82,10-11,.73-1.73,1.54-3.71,1-6-.63-2.68-2.58-3.53-8-8-.51-.42-3.01-2.62-8-7-5.61-4.93-7.09-6.36-9-6-1.27,.24-2.17,1.54-4,4-1.72,2.31-2.65,4.29-3,5-3.65,7.48-4.81,6.64-7,12-1.57,3.84-1.61,5.83-4,9-.85,1.13-2.57,3.36-4,3-1.38-.35-1.82-2.94-2-4-1.94-11.34-4.33-22.61-6-34,0,0-.66-4.49-2-11-1.79-8.7-2.63-10.33-3-11-1.2-2.16-3.28-4.66-12-9-12.44-6.19-14.68-4.33-25-10-6.85-3.77-6.72-5.06-12-7-4.04-1.48-7.62-2.02-9-5-.73-1.57-.7-3.5,0-5,1.23-2.65,4.36-3.53,6-4,5.68-1.62,11.19-3.94,17-5,.56-.1,.15-.03,23-7,15.78-4.81,17.52-5.32,20-6,8.31-2.29,14.67-3.77,20-5,16.82-3.89,18.2-3.49,28-6,10.52-2.69,9.44-3.28,25-8,12.99-3.94,23.1-6.38,34-9,13.56-3.26,20.34-4.9,27-6,5.46-.9,11.8-1.77,21-4,2.96-.72,5.96-1.89,11-3,4.74-1.05,7.32-1.3,12-2,3.95-.59,11.97-1.81,21-4,5.66-1.37,11.42-2.34,17-4,0,0,2.41-.72,7-1,4.15-.25,5.31,.28,6,1,1.11,1.16,1.04,2.88,1,4-.06,1.5-.5,3.83-3,7-2.08,2.65-4.14,4.03-7,6-5.88,4.04-8.82,6.06-10,7-4.83,3.85-5.18,6.19-10,12-4.77,5.76-5.44,4.68-14,13-3.97,3.86-9.92,9.69-16,18-4.96,6.78-3.56,6.4-9,14-6.51,9.09-8.62,9.79-15,19-4.17,6.02-6.91,10.98-8,13-3.44,6.37-3.25,7.28-7,15-5.12,10.52-5.56,9.01-11,20-2.61,5.26-4.4,8.18-8,14-1.58,2.55-3.44,5.45-7,7-.64,.28-2.7,1.11-6,1-5.71-.18-9.89-3-13-5-11.4-7.31-9.23-4.07-23-13-5.69-3.69-4.97-3.54-13-9-17.17-11.68-23.63-14.53-23-18,.26-1.44,1.52-1.82,9-6,4.04-2.26,8-4.67,12-7,7.94-4.62,8.25-5.53,20-13,8.05-5.12,7.05-4.14,13-8,8.94-5.79,9.77-7.06,20-14,2.47-1.67,2.12-1.39,17-11,10.3-6.64,15.44-9.97,17-11,14.78-9.81,14.89-10.74,25-17,4.3-2.66,2.52-1.41,17-10,9.24-5.48,10.52-6.33,14-8,6.25-3,10.18-4.17,10-5-.22-1-6.22-.68-11,0-8.72,1.24-14.6,3.84-22,7-20.08,8.58-17.64,6.91-31,13-10.25,4.68-8.63,4.27-17,8-14.92,6.65-17.44,6.77-28,12-10.22,5.06-9.25,5.63-17,9-10.25,4.45-12.27,3.59-23,8-10.53,4.32-8.3,5.03-20,10-7.7,3.27-15.14,7.16-23,10-3.11,1.12-6.89,2.4-9,6-1.84,3.14-1.52,6.53-1,10,1.87,12.36,5.13,17.37,8,29,1.41,5.72,.77,5.11,3,15,1.54,6.84,1.81,6.97,4,16,2.17,8.94,2.8,12.51,5,19,2.1,6.21,3.53,8.84,6,11,3.31,2.89,7.07,3.66,9,4,16.08,2.86,46.55,1.35,58,1,10.33-.32,20.67,0,31,0h64c22.97,0,22.86,0,23,0,16.81,.67,28.19,1.13,36,8,11.27,9.91,12.81,31.14,5,46-11.01,20.95-41.82,31.56-59,19-10.92-7.99-17.46-26.17-11-35,8.93-12.19,34.47,4.64,87,0,24.7-2.18,40.71-3.6,52-16,10.55-11.59,9.55-24.59,25-35,9.97-6.72,15.58-4.81,21-11,8.03-9.18,6.13-25.3,0-43"/>
</svg>